PathFileType	4	(X/Y/Z)	/Users/itak/Documents/Research/Walk-IL/dataset/trc/00419_00012.trc
DataRate	CameraRate	NumFrames	NumMarkers	Units	OrigDataRate	OrigDataStartFrame	OrigNumFrames
100.000000	100.000000	4	54	mm	100.000000	262	524
Frame#	Time	RPSI			LPSI			L3			STRN			T10			C7			CLAV			RBAK			LBAK			LSHO			LUPA			LAEL			LAOL			LWTS			LWPS			LFRA			LIFD			LHPS			LHTS			RSHO			RUPA			RAEL			RAOL			RWTS			RWPS			RFRA			RIFD			RHTS			RHPS			RBHD			LFHD			RFHD			LBHD			LHIP			RHIP			RASI			LASI			LKNE			LTHI			LANK			LTIP			LTOE			LMT1			LMT5			LHEE			RKNE			RTHI			RANK			RTIP			RTOE			RMT1			RMT5			RHEE			*53			
		X1	Y1	Z1	X2	Y2	Z2	X3	Y3	Z3	X4	Y4	Z4	X5	Y5	Z5	X6	Y6	Z6	X7	Y7	Z7	X8	Y8	Z8	X9	Y9	Z9	X10	Y10	Z10	X11	Y11	Z11	X12	Y12	Z12	X13	Y13	Z13	X14	Y14	Z14	X15	Y15	Z15	X16	Y16	Z16	X17	Y17	Z17	X18	Y18	Z18	X19	Y19	Z19	X20	Y20	Z20	X21	Y21	Z21	X22	Y22	Z22	X23	Y23	Z23	X24	Y24	Z24	X25	Y25	Z25	X26	Y26	Z26	X27	Y27	Z27	X28	Y28	Z28	X29	Y29	Z29	X30	Y30	Z30	X31	Y31	Z31	X32	Y32	Z32	X33	Y33	Z33	X34	Y34	Z34	X35	Y35	Z35	X36	Y36	Z36	X37	Y37	Z37	X38	Y38	Z38	X39	Y39	Z39	X40	Y40	Z40	X41	Y41	Z41	X42	Y42	Z42	X43	Y43	Z43	X44	Y44	Z44	X45	Y45	Z45	X46	Y46	Z46	X47	Y47	Z47	X48	Y48	Z48	X49	Y49	Z49	X50	Y50	Z50	X51	Y51	Z51	X52	Y52	Z52	X53	Y53	Z53	X54	Y54	Z54	

263	2.62	-914.2765502929688	967.3322143554688	-513.5798950195312	-918.4337768554688	955.90673828125	-646.8114624023438	-907.0896606445312	1043.473022460938	-577.4125366210938	-672.4185791015625	1191.490600585938	-561.6216430664062	-912.6658325195312	1142.284301757812	-587.4981689453125	-880.4671630859375	1390.92822265625	-593.8159790039062	-725.8129272460938	1311.631225585938	-564.5252075195312	-928.4291381835938	1243.429443359375	-534.6127319335938	-877.3057250976562	1356.18701171875	-698.6337280273438	-783.530029296875	1371.722534179688	-733.1758422851562	-794.0133666992188	1254.515380859375	-805.858642578125	-770.591796875	1058.65869140625	-823.162841796875	-827.90771484375	1035.670532226562	-765.1288452148438	-665.3382568359375	850.4581298828125	-776.0081787109375	-710.0408325195312	834.9942016601562	-842.3377685546875	-748.041015625	956.55029296875	-832.9713745117188	-654.0255126953125	670.0584106445312	-781.6709594726562	-690.2325439453125	751.0150756835938	-835.543701171875	-640.3944091796875	754.2256469726562	-795.8782958984375	-846.4246826171875	1368.889526367188	-429.3896179199219	-869.2719116210938	1305.034790039062	-373.7474365234375	-875.6405029296875	1044.8359375	-329.4360656738281	-873.6406860351562	1032.706787109375	-424.5055541992188	-721.9888916015625	847.0171508789062	-320.8503723144531	-773.2608642578125	830.9176025390625	-270.2247924804688	-849.1488037109375	982.033203125	-305.7974548339844	-703.8604736328125	672.1592407226562	-308.7799987792969	-697.3273315429688	743.7501220703125	-295.9369506835938	-756.7523803710938	742.7693481445312	-266.5657348632812	-891.0089111328125	1562.848754882812	-506.4447021484375	-712.93798828125	1602.117553710938	-583.373046875	-760.1319580078125	1591.190795898438	-479.1300659179688	-837.0734252929688	1573.63427734375	-658.3878173828125	-828.9842529296875	944.9141235351562	-758.38134765625	-830.3525390625	943.0809326171875	-399.0985107421875	-700.0455322265625	947.8383178710938	-454.658203125	-716.7177124023438	942.65087890625	-715.71240234375	-673.6245727539062	470.3162231445312	-776.5468139648438	-711.39599609375	601.224609375	-773.9425048828125	-1022.037902832031	186.4928741455078	-811.1778564453125	-843.236328125	313.5312194824219	-807.9480590820312	-873.1634521484375	39.99641418457031	-751.421875	-931.3430786132812	88.35747528076172	-720.2890014648438	-935.2409057617188	96.78813171386719	-826.174072265625	-1051.997680664062	207.8831634521484	-755.0573120117188	-738.8324584960938	454.2734375	-504.9354553222656	-734.4249877929688	710.0442504882812	-427.5143737792969	-806.3742065429688	52.15254974365234	-602.8974609375	-730.4174194335938	330.4556274414062	-542.4293212890625	-623.751220703125	37.10429000854492	-657.8446655273438	-700.0653076171875	42.25863647460938	-692.3875122070312	-724.4244384765625	44.58288192749023	-594.7540893554688	-875.573974609375	43.25848007202148	-660.2163696289062	nan	nan	nan	
264	2.63	-906.589599609375	967.9344482421875	-514.1423950195312	-908.9059448242188	956.850830078125	-647.4314575195312	-898.4129028320312	1044.581420898438	-577.276611328125	-663.5703125	1192.663696289062	-558.841552734375	-903.4019775390625	1143.323364257812	-587.1817016601562	-871.1338500976562	1392.003784179688	-593.0601806640625	-716.7548217773438	1312.9287109375	-562.5044555664062	-919.6021728515625	1244.517456054688	-534.0811157226562	-867.2503051757812	1357.260864257812	-697.6762084960938	-773.3348999023438	1372.7705078125	-731.689208984375	-784.4531860351562	1255.693725585938	-804.4918823242188	-763.5657958984375	1059.954711914062	-822.2662963867188	-818.9754638671875	1037.095581054688	-762.5145263671875	-658.96826171875	850.137939453125	-779.0989990234375	-706.56005859375	835.1079711914062	-843.45361328125	-742.2136840820312	957.4362182617188	-832.9326782226562	-650.1871948242188	669.3425903320312	-785.2720947265625	-687.5419921875	750.9547729492188	-837.31982421875	-635.8076782226562	753.6089477539062	-799.8939819335938	-838.5032348632812	1370.28466796875	-428.5396728515625	-861.6175537109375	1306.566528320312	-372.7152099609375	-865.6895141601562	1046.47119140625	-326.5570983886719	-863.5736694335938	1033.691528320312	-421.6862182617188	-707.224609375	852.7047729492188	-316.7220458984375	-758.0164184570312	835.5977172851562	-265.9564819335938	-837.828125	984.4583129882812	-302.5966186523438	-683.7360229492188	678.831298828125	-302.8946838378906	-679.3865356445312	750.5718994140625	-290.7178344726562	-738.781005859375	747.9702758789062	-261.3558959960938	-881.894775390625	1564.01220703125	-505.6239013671875	-703.3890991210938	1603.15478515625	-581.52490234375	-751.904052734375	1592.193115234375	-476.9339904785156	-827.0462036132812	1574.659790039062	-657.24658203125	-817.4033813476562	946.894287109375	-757.3009643554688	-824.5119018554688	943.3159790039062	-398.1513061523438	-693.3648681640625	948.3711547851562	-451.2424011230469	-706.0552978515625	944.7810668945312	-712.439453125	-651.348388671875	475.3651123046875	-771.9131469726562	-692.5856323242188	605.274658203125	-770.9804077148438	-989.11865234375	179.8219451904297	-813.1394653320312	-815.3372802734375	313.3590393066406	-806.55712890625	-832.2308959960938	40.57262420654297	-755.544189453125	-893.9461669921875	84.35863494873047	-723.67431640625	-896.5424194335938	96.06105804443359	-829.216552734375	-1020.9912109375	197.8857574462891	-756.9271240234375	-737.7793579101562	453.8068237304688	-503.7566833496094	-730.1715087890625	709.6473388671875	-425.946044921875	-806.3439331054688	52.17321014404297	-602.83349609375	-729.669189453125	330.16796875	-541.6677856445312	-623.798828125	37.08993911743164	-657.8336791992188	-700.074951171875	42.36236953735352	-692.3534545898438	-724.4346923828125	44.56735229492188	-594.7022705078125	-875.5919799804688	43.4417724609375	-660.3511352539062	nan	nan	nan	
265	2.64	-898.9207763671875	968.3772583007812	-514.7766723632812	-899.361083984375	957.6068115234375	-648.088623046875	-889.8902587890625	1045.566772460938	-577.20654296875	-654.8026733398438	1193.648803710938	-555.9198608398438	-894.1394653320312	1144.216552734375	-586.890380859375	-861.7945556640625	1392.951171875	-592.2412109375	-707.6849975585938	1314.037963867188	-560.3095703125	-910.8349609375	1245.49755859375	-533.5158081054688	-857.138916015625	1358.213256835938	-696.6672973632812	-763.0625610351562	1373.670532226562	-730.0737915039062	-774.8193359375	1256.804809570312	-803.0853881835938	-756.4735107421875	1061.164916992188	-821.5567016601562	-810.1526489257812	1038.442504882812	-760.2730102539062	-652.6419067382812	849.8980102539062	-782.2139892578125	-703.017822265625	835.2218017578125	-844.5321044921875	-736.3037719726562	958.2822875976562	-833.00732421875	-646.3881225585938	668.754150390625	-788.3262329101562	-684.7781372070312	750.8624877929688	-838.823486328125	-631.2930908203125	753.046630859375	-803.6373291015625	-830.6131591796875	1371.5341796875	-427.5951232910156	-854.0700073242188	1307.960815429688	-371.6070556640625	-856.0518188476562	1047.976440429688	-323.7120971679688	-853.6524047851562	1034.569213867188	-418.8790283203125	-692.7680053710938	858.4771728515625	-312.5316467285156	-743.1039428710938	840.3074951171875	-261.6879577636719	-826.8648681640625	986.7753295898438	-299.41796875	-663.84228515625	685.7721557617188	-296.9888305664062	-661.8048706054688	757.5626831054688	-285.4576721191406	-721.114501953125	753.2925415039062	-256.1778564453125	-872.8050537109375	1565.039306640625	-504.7731628417969	-693.8068237304688	1603.99658203125	-579.6035766601562	-743.9093017578125	1593.028442382812	-474.3516235351562	-816.95458984375	1575.4990234375	-656.0618286132812	-805.8301391601562	948.6983032226562	-756.2041015625	-818.8028564453125	943.4458618164062	-397.3388671875	-686.7786865234375	948.7778930664062	-447.9314880371094	-695.4300537109375	946.7352905273438	-709.2028198242188	-629.7662353515625	480.3471069335938	-766.757080078125	-674.1790771484375	609.2595825195312	-767.6558227539062	-955.449951171875	172.3072662353516	-814.535400390625	-787.4874877929688	312.7838745117188	-804.6423950195312	-790.8604125976562	41.25753021240234	-758.0966186523438	-855.8583984375	80.29965972900391	-725.9564208984375	-857.432861328125	94.76727294921875	-831.0541381835938	-989.09033203125	187.1151275634766	-758.4124145507812	-736.5692138671875	453.3661804199219	-502.6638793945312	-725.858642578125	709.23876953125	-424.5310668945312	-806.3110961914062	52.19675827026367	-602.7779541015625	-728.8018188476562	329.8840026855469	-540.9202880859375	-623.81201171875	37.09294128417969	-657.8186645507812	-699.9564819335938	42.54946517944336	-692.2838134765625	-724.4395141601562	44.55358505249023	-594.6542358398438	-875.6565551757812	43.7095947265625	-660.4033203125	nan	nan	nan	
266	2.65	-891.2438354492188	968.654296875	-515.4617309570312	-889.7685546875	958.1563110351562	-648.76025390625	-881.4834594726562	1046.406372070312	-577.199462890625	-646.1135864257812	1194.425170898438	-552.8702392578125	-884.9096069335938	1144.95458984375	-586.6038818359375	-852.44921875	1393.75634765625	-591.3561401367188	-698.6138305664062	1314.930297851562	-557.947265625	-902.1245727539062	1246.35400390625	-532.9118041992188	-846.969970703125	1359.025756835938	-695.6062622070312	-752.7081909179688	1374.399780273438	-728.3284301757812	-765.0732421875	1257.815673828125	-801.629150390625	-749.2296142578125	1062.268920898438	-820.99755859375	-801.456787109375	1039.672119140625	-758.453125	-646.3551025390625	849.6829833984375	-785.276611328125	-699.3391723632812	835.3180541992188	-845.5712280273438	-730.2401123046875	959.0652465820312	-833.1768798828125	-642.5506591796875	668.2882080078125	-790.8388671875	-681.850830078125	750.7230834960938	-840.0860595703125	-626.8403930664062	752.4990844726562	-807.0768432617188	-822.74365234375	1372.609497070312	-426.5487976074219	-846.6135864257812	1309.183471679688	-370.4170837402344	-846.6920166015625	1049.316772460938	-320.8782958984375	-843.8938598632812	1035.303344726562	-416.06201171875	-678.6430053710938	864.275634765625	-308.3035888671875	-728.5330810546875	844.9949340820312	-257.4328002929688	-816.2349853515625	988.93603515625	-296.2467956542969	-644.2605590820312	692.8963623046875	-291.1039123535156	-644.614501953125	764.6676025390625	-280.1938171386719	-703.7788696289062	758.68603515625	-251.0518493652344	-863.7327880859375	1565.91552734375	-503.8899230957031	-684.1875610351562	1604.625366210938	-577.6010131835938	-736.0250854492188	1593.6884765625	-471.5052795410156	-806.7962036132812	1576.139038085938	-654.831787109375	-794.2544555664062	950.2830810546875	-755.0910034179688	-813.155517578125	943.4658203125	-396.6491394042969	-680.242431640625	949.052490234375	-444.7444458007812	-684.826904296875	948.48095703125	-706.0143432617188	-608.917724609375	485.1604309082031	-761.151123046875	-656.207275390625	613.090087890625	-763.984619140625	-921.046630859375	164.0539703369141	-815.2518310546875	-759.7037963867188	311.7603454589844	-802.2036743164062	-749.2289428710938	42.06244659423828	-759.0549926757812	-817.175537109375	76.26003265380859	-727.0477294921875	-818.0101928710938	92.93679809570312	-831.6488647460938	-956.294921875	175.7191467285156	-759.376220703125	-735.190185546875	452.9464416503906	-501.6492004394531	-721.4517822265625	708.8053588867188	-423.2795104980469	-806.2749633789062	52.22050476074219	-602.72900390625	-727.82275390625	329.5933837890625	-540.1917114257812	-623.791015625	37.11154556274414	-657.8026733398438	-699.676025390625	42.82773590087891	-692.1682739257812	-724.4359741210938	44.54057693481445	-594.6109008789062	-875.73828125	44.02063369750977	-660.4008178710938	nan	nan	nan	
